<svg width="1291" height="536" viewBox="0 0 1291 536" fill="none" xmlns="http://www.w3.org/2000/svg">
<path d="M147.328 208.864H139.136C128.043 208.864 122.496 215.093 122.496 227.552V230.368H147.328V286.688H89.216V229.088C89.216 197.515 105.941 181.728 139.392 181.728H147.328V208.864ZM223.828 208.864H215.636C204.543 208.864 198.996 215.093 198.996 227.552V230.368H223.828V286.688H165.716V229.088C165.716 197.515 182.441 181.728 215.892 181.728H223.828V208.864ZM295.464 181.728V249.056C304.168 235.573 317.224 228.832 334.632 228.832C352.04 228.832 365.864 235.061 376.104 247.52C386.173 260.149 391.208 276.96 391.208 297.952C391.208 318.773 386.173 335.499 376.104 348.128C365.864 360.757 352.04 367.072 334.632 367.072C316.029 367.072 302.461 359.477 293.928 344.288V364H242.216V181.728H295.464ZM315.432 325.856C330.451 325.856 337.96 316.469 337.96 297.696C337.96 279.093 330.451 269.792 315.432 269.792C300.584 269.792 293.16 279.093 293.16 297.696C293.16 316.469 300.584 325.856 315.432 325.856ZM492.524 229.856C496.108 229.856 499.265 230.112 501.996 230.624V278.496H489.708C468.545 278.496 457.964 290.101 457.964 313.312V364H404.716V231.904H456.94V258.016C461.548 239.243 473.409 229.856 492.524 229.856ZM569.464 221.152H516.216V181.216H569.464V221.152ZM569.464 364H516.216V231.904H569.464V364ZM678.846 249.056V181.728H732.094V364H680.382V344.288C671.849 359.477 658.281 367.072 639.678 367.072C622.27 367.072 608.531 360.757 598.462 348.128C588.222 335.499 583.102 318.773 583.102 297.952C583.102 276.789 588.222 259.979 598.462 247.52C608.361 235.061 622.099 228.832 639.678 228.832C657.086 228.832 670.142 235.573 678.846 249.056ZM658.878 326.112C673.726 326.112 681.15 316.811 681.15 298.208C681.15 279.435 673.726 270.048 658.878 270.048C643.859 270.048 636.35 279.435 636.35 298.208C636.35 316.811 643.859 326.112 658.878 326.112ZM843.906 250.848V231.904H897.154V358.112C897.154 377.909 890.669 393.099 877.698 403.68C864.727 414.261 846.381 419.552 822.658 419.552C776.407 419.552 751.49 401.888 747.906 366.56H801.666C802.861 376.971 809.687 382.176 822.146 382.176C829.314 382.176 834.519 380.555 837.762 377.312C841.175 374.24 842.882 369.291 842.882 362.464V338.656C833.837 352.309 820.013 359.136 801.41 359.136C784.173 359.136 770.605 353.163 760.706 341.216C750.637 329.269 745.602 313.483 745.602 293.856C745.602 274.4 750.637 258.613 760.706 246.496C770.605 234.72 784.173 228.832 801.41 228.832C820.695 228.832 834.861 236.171 843.906 250.848ZM821.378 321.76C836.226 321.76 843.65 312.373 843.65 293.6C843.65 275.168 836.226 265.952 821.378 265.952C806.359 265.952 798.85 275.168 798.85 293.6C798.85 312.373 806.359 321.76 821.378 321.76ZM1057.8 296.416C1057.8 301.365 1057.46 306.315 1056.78 311.264H960.522C961.205 324.747 969.653 331.488 985.866 331.488C994.911 331.488 1001.23 329.099 1004.81 324.32H1054.47C1050.55 337.973 1042.44 348.555 1030.15 356.064C1017.87 363.403 1002.76 367.072 984.842 367.072C961.802 367.072 943.626 361.013 930.314 348.896C917.173 336.608 910.602 319.797 910.602 298.464C910.602 277.472 917.258 260.576 930.57 247.776C944.053 235.147 962.058 228.832 984.586 228.832C1006.6 228.832 1024.35 234.805 1037.83 246.752C1051.15 258.869 1057.8 275.424 1057.8 296.416ZM983.818 264.16C970.847 264.16 963.338 270.645 961.29 283.616H1006.6C1005.41 270.645 997.813 264.16 983.818 264.16ZM1066.47 238.048V181.728H1124.58V239.328C1124.58 270.901 1107.85 286.688 1074.4 286.688H1066.47V259.552H1074.66C1085.75 259.552 1091.3 253.323 1091.3 240.864V238.048H1066.47ZM1142.97 238.048V181.728H1201.08V239.328C1201.08 270.901 1184.35 286.688 1150.9 286.688H1142.97V259.552H1151.16C1162.25 259.552 1167.8 253.323 1167.8 240.864V238.048H1142.97Z" fill="#FBF5E5"/>
</svg>
